<?xml version="1.0" encoding="utf-8"?>
<!-- Generator: Adobe Illustrator 22.1.0, SVG Export Plug-In . SVG Version: 6.00 Build 0)  -->
<svg version="1.1" id="Layer_1" xmlns="http://www.w3.org/2000/svg" xmlns:xlink="http://www.w3.org/1999/xlink" x="0px" y="0px"
	 viewBox="0 0 500 125.6" style="enable-background:new 0 0 500 125.6;" xml:space="preserve">
<style type="text/css">
	.st0{fill:#F6F6F6;}
</style>
<polygon class="st0" points="8.8,100.6 8.8,103.8 15.1,103.8 15.1,121.1 18.6,121.1 18.6,103.8 24.9,103.8 24.9,100.6 "/>
<polygon class="st0" points="50.2,100.6 50.2,121.1 64,121.1 64,117.9 53.7,117.9 53.7,112 63,112 63,109 53.7,109 53.7,103.8 
	63.6,103.8 63.6,100.6 "/>
<path class="st0" d="M105.1,115.9c-0.6,0.8-1.3,1.4-2.1,1.8c-0.9,0.4-1.8,0.6-2.9,0.6c-1.1,0-2.1-0.2-2.9-0.6
	c-0.9-0.4-1.6-0.9-2.2-1.6c-0.6-0.7-1.1-1.5-1.4-2.4c-0.3-0.9-0.5-1.9-0.5-3c0-1,0.2-2,0.5-2.9c0.3-0.9,0.8-1.7,1.4-2.4
	c0.6-0.7,1.4-1.2,2.2-1.6c0.9-0.4,1.9-0.6,3-0.6c1,0,1.9,0.2,2.7,0.6c0.8,0.4,1.5,0.9,1.9,1.5l0.2,0.3l2.8-2.1l-0.2-0.3
	c-0.4-0.5-0.9-1-1.4-1.4c-0.5-0.4-1.1-0.7-1.8-1c-0.6-0.3-1.3-0.5-2.1-0.6c-2.3-0.4-4.5-0.2-6.4,0.6c-1.3,0.5-2.5,1.3-3.4,2.2
	c-1,0.9-1.7,2.1-2.3,3.4c-0.5,1.3-0.8,2.8-0.8,4.4c0,1.6,0.3,3,0.8,4.3c0.5,1.3,1.3,2.5,2.2,3.4c1,1,2.1,1.7,3.4,2.2
	c1.3,0.5,2.8,0.8,4.3,0.8c1.8,0,3.4-0.3,4.7-1c1.3-0.7,2.3-1.6,3.2-2.7l0.2-0.3l-2.8-1.9L105.1,115.9z"/>
<polygon class="st0" points="146.1,108.9 136.9,108.9 136.9,100.6 133.4,100.6 133.4,121.1 136.9,121.1 136.9,112 146.1,112 
	146.1,121.1 149.6,121.1 149.6,100.6 146.1,100.6 "/>
<polygon class="st0" points="191,115.6 181.2,100.6 177.1,100.6 177.1,121.1 180.6,121.1 180.6,105.8 190.5,121.1 194.5,121.1 
	194.5,100.6 191,100.6 "/>
<path class="st0" d="M239.5,103.1c-1-0.9-2.1-1.7-3.4-2.2c-1.3-0.5-2.8-0.8-4.3-0.8c-1.5,0-3,0.3-4.3,0.8c-1.3,0.5-2.5,1.2-3.4,2.2
	c-1,0.9-1.7,2.1-2.3,3.4c-0.5,1.3-0.8,2.8-0.8,4.4c0,1.6,0.3,3,0.8,4.3c0.5,1.3,1.3,2.5,2.3,3.4c1,1,2.1,1.7,3.4,2.2
	c1.3,0.5,2.8,0.8,4.3,0.8c1.5,0,3-0.3,4.3-0.8c1.3-0.5,2.5-1.3,3.4-2.2c1-1,1.7-2.1,2.3-3.4c0.5-1.3,0.8-2.8,0.8-4.3
	c0-1.6-0.3-3-0.8-4.4C241.2,105.2,240.4,104,239.5,103.1 M238.9,110.8c0,1.1-0.2,2-0.5,3c-0.3,0.9-0.8,1.7-1.4,2.4
	c-0.6,0.7-1.4,1.2-2.2,1.6c-0.9,0.4-1.9,0.6-2.9,0.6c-1.1,0-2.1-0.2-2.9-0.6c-0.9-0.4-1.6-0.9-2.2-1.6c-0.6-0.7-1.1-1.5-1.4-2.4
	c-0.3-0.9-0.5-1.9-0.5-3c0-1,0.2-2,0.5-2.9c0.3-0.9,0.8-1.7,1.4-2.4c0.6-0.7,1.4-1.2,2.2-1.6c0.9-0.4,1.9-0.6,2.9-0.6
	c1.1,0,2.1,0.2,3,0.6c0.9,0.4,1.6,0.9,2.2,1.6c0.6,0.7,1.1,1.5,1.4,2.4C238.7,108.8,238.9,109.8,238.9,110.8"/>
<polygon class="st0" points="272.5,100.6 269,100.6 269,121.1 281.3,121.1 281.3,117.9 272.5,117.9 "/>
<path class="st0" d="M323.3,103.1c-1-0.9-2.1-1.7-3.4-2.2c-1.3-0.5-2.8-0.8-4.3-0.8c-1.5,0-3,0.3-4.3,0.8c-1.3,0.5-2.5,1.3-3.4,2.2
	c-1,0.9-1.7,2.1-2.3,3.4c-0.5,1.3-0.8,2.8-0.8,4.4c0,1.6,0.3,3,0.8,4.3c0.5,1.3,1.3,2.5,2.3,3.4c1,1,2.1,1.7,3.4,2.2
	c1.3,0.5,2.8,0.8,4.3,0.8c1.5,0,3-0.3,4.3-0.8c1.3-0.5,2.5-1.3,3.4-2.2c1-1,1.7-2.1,2.3-3.4c0.5-1.3,0.8-2.8,0.8-4.3
	c0-1.6-0.3-3-0.8-4.4C325,105.2,324.2,104,323.3,103.1 M315.5,118.4c-1.1,0-2.1-0.2-2.9-0.6c-0.9-0.4-1.6-0.9-2.2-1.6
	c-0.6-0.7-1.1-1.5-1.4-2.4c-0.3-0.9-0.5-1.9-0.5-3c0-1,0.2-2,0.5-2.9c0.3-0.9,0.8-1.7,1.4-2.4c0.6-0.7,1.4-1.2,2.2-1.6
	c0.9-0.4,1.9-0.6,2.9-0.6c1.1,0,2.1,0.2,3,0.6c0.9,0.4,1.6,0.9,2.2,1.6c0.6,0.7,1.1,1.5,1.4,2.4c0.3,0.9,0.5,1.9,0.5,2.9
	c0,1-0.2,2-0.5,3c-0.3,0.9-0.8,1.7-1.4,2.4c-0.6,0.7-1.4,1.2-2.2,1.6C317.6,118.2,316.6,118.4,315.5,118.4"/>
<path class="st0" d="M357.4,105.5c0.6-0.7,1.4-1.2,2.2-1.6c0.9-0.4,1.9-0.6,3-0.6c1.1,0,2.1,0.2,2.9,0.6c0.9,0.4,1.6,0.9,2.1,1.5
	l0.3,0.3l2.4-2.6l-0.3-0.3c-0.8-0.8-1.9-1.5-3.2-1.9c-1.3-0.5-2.7-0.7-4.3-0.7c-1.5,0-3,0.3-4.3,0.8c-1.3,0.5-2.5,1.3-3.4,2.2
	c-1,0.9-1.7,2.1-2.3,3.4c-0.5,1.3-0.8,2.8-0.8,4.4c0,1.6,0.3,3,0.8,4.3c0.5,1.3,1.3,2.5,2.3,3.4c1,1,2.1,1.7,3.4,2.2
	c1.3,0.5,2.8,0.8,4.4,0.8c1.5,0,2.9-0.2,4.1-0.5c1.2-0.3,2.4-0.7,3.5-1.3l0.2-0.1v-10.1h-7.8v3.1h4.4v4.9c-0.5,0.2-1.1,0.4-1.7,0.6
	c-0.8,0.2-1.6,0.2-2.5,0.2c-1.1,0-2.1-0.2-3-0.6c-0.9-0.4-1.7-0.9-2.3-1.6c-0.6-0.7-1.1-1.5-1.4-2.4c-0.3-0.9-0.5-1.9-0.5-3
	c0-1,0.2-2,0.5-2.9C356.3,107,356.8,106.2,357.4,105.5"/>
<rect x="397.8" y="100.6" class="st0" width="3.5" height="20.4"/>
<polygon class="st0" points="432.2,112 441.5,112 441.5,109 432.2,109 432.2,103.8 442.1,103.8 442.1,100.6 428.7,100.6 
	428.7,121.1 442.5,121.1 442.5,117.9 432.2,117.9 "/>
<path class="st0" d="M480.9,112.6c-0.4-0.7-0.9-1.3-1.5-1.7c-0.6-0.4-1.2-0.8-2-1.1c-0.7-0.3-1.4-0.5-2-0.7
	c-0.6-0.2-1.1-0.4-1.6-0.5c-0.5-0.2-0.9-0.4-1.2-0.6c-0.3-0.2-0.6-0.5-0.8-0.8c-0.2-0.3-0.3-0.7-0.3-1.2c0-0.5,0.1-0.9,0.3-1.3
	c0.2-0.4,0.5-0.7,0.8-0.9c0.3-0.2,0.7-0.4,1.1-0.5c1.2-0.3,2.4-0.2,3.3,0.3c0.6,0.3,1.1,0.7,1.5,1.2l0.3,0.3l2.5-2.4l-0.2-0.3
	c-0.6-0.7-1.5-1.3-2.6-1.7c-1.8-0.7-3.9-0.8-5.9-0.3c-0.8,0.2-1.6,0.6-2.3,1.1c-0.7,0.5-1.2,1.1-1.7,1.9c-0.4,0.8-0.6,1.7-0.6,2.7
	c0,1,0.2,1.8,0.5,2.4c0.3,0.7,0.7,1.2,1.3,1.7c0.5,0.4,1.1,0.8,1.7,1.1c0.6,0.3,1.3,0.5,1.9,0.7c0.6,0.2,1.2,0.4,1.8,0.6
	c0.5,0.2,1,0.4,1.4,0.7c0.4,0.3,0.7,0.6,0.9,0.9c0.2,0.3,0.3,0.8,0.3,1.3c0,0.5-0.1,1-0.3,1.3c-0.2,0.4-0.5,0.7-0.8,0.9
	c-0.3,0.3-0.7,0.4-1.2,0.6c-1.3,0.4-2.6,0.2-3.6-0.4c-0.7-0.4-1.3-0.9-1.7-1.6l-0.2-0.3l-2.7,2.3l0.2,0.3c0.8,1,1.8,1.7,3,2.3
	c1.2,0.5,2.5,0.8,3.7,0.8c0.9,0,1.8-0.1,2.6-0.4c0.9-0.3,1.6-0.6,2.3-1.2c0.7-0.5,1.2-1.2,1.6-2c0.4-0.8,0.6-1.7,0.6-2.8
	C481.5,114.2,481.3,113.3,480.9,112.6"/>
<path class="st0" d="M208.3,20l-22.6,0.6l-2.3,9.1h-9.6l-2.2,8.7h9.6l-5.4,21.9c-2.8,11.1,2.7,13.9,9.8,13.9h27.2l4-10.4
	c-1.1,0.5-3.2,1.7-7.6,1.7h-7.9c-4,0-4.3-0.8-3.6-3.6l5.9-23.5h17.8l2.2-8.7h-17.8L208.3,20z"/>
<path class="st0" d="M92.5,0H58.9l2.2,4.2l-27.6,38H22.3L11.2,54.3h13.4L20,60.8c-4.1,5.7-6,7.8-11.8,13.5h21
	c-0.9-2.6-0.9-2.8-0.3-5.3c0.5-1.5,1.2-3,2.2-4.4l7.5-10.2h13.8v0h18.8l1.6,9.5c0.3,1.6,0.1,3.8-0.3,5.6c-0.4,1.6-0.7,2.1-2.8,4.9
	h37.2c-1.9-2.8-3.3-6.4-3.9-10.2L92.5,0z M47.3,42L65,16.9L69.3,42H47.3z"/>
<path class="st0" d="M144.8,36.9h-0.2l1-7.2h-22.4c0.8,2.3,1.4,4.1-0.1,10.2l-2.4,9.5L117.2,64c-1.5,6.2-3.1,8-5,10.2h27.3
	c-0.8-2.3-1.4-4.1,0.1-10.2l0.1-0.6l3.5-13.7c1.5-6.1,3.6-7.6,12.4-7.6c6.6,0,7.4,0.6,9.8,2.2l3.6-14.6h-10.9
	C151.1,29.7,148.3,31.6,144.8,36.9"/>
<path class="st0" d="M279.6,29.7h-34c-10,0-13.9,4.2-16.2,13.5l-4.5,17.6c-2.3,9.3-0.5,13.5,9.6,13.5H279l4.4-10.6
	c-4,1.6-6.4,1.9-10.6,1.9h-21.5c-3.6,0-4.7-1.3-4-4.5l1-4.2h37.5l3.4-13.7C291.4,33.9,289.6,29.7,279.6,29.7 M267.6,42l-1.5,6.1
	h-15.7L252,42c0.7-2.6,1.6-3.6,4.1-3.6h9.2C267.7,38.4,268.3,39.5,267.6,42"/>
<path class="st0" d="M377.9,29.7h-15.4c-3.8,0-5.4,3-6.2,4.8h-0.2c-0.4-3.6-1-4.8-6.5-4.8h-20c-3.8,0-5.5,2.6-7.1,5.4h-0.2l0.8-5.4
	h-21.2c0.8,2.3,1.4,4.1-0.1,10.2l-6,24.1c-1.5,6.2-3.1,8-5,10.2h25.4c-0.8-2.3-1.4-4.1,0.1-10.2l5.6-22.4c0.6-2.3,1.8-3.2,3.5-3.2
	h7.4c1.7,0,2.6,0.9,2,3.2L329.1,64c-1.5,6.2-3.1,8-5,10.2h25.4c-0.8-2.3-1.4-4.1,0.1-10.2l5.6-22.4c0.6-2.3,1.8-3.2,3.5-3.2h7.4
	c1.7,0,2.6,0.9,2,3.2L362.4,64c-1.5,6.2-3.1,8-5,10.2h25.4c-0.8-2.3-1.4-4.1,0.1-10.2l4.2-16.9C391,31.8,385.3,29.7,377.9,29.7"/>
<polygon class="st0" points="409.1,13.6 406.1,25.3 428.1,25.3 431.1,13.6 "/>
<path class="st0" d="M402.2,39.9l-6,24.1c-1.5,6.2-3.1,8-5,10.2h27.3c-0.8-2.3-1.4-4.1,0.1-10.2l8.5-34.3h-24.8
	C403.1,32,403.8,33.8,402.2,39.9"/>
<path class="st0" d="M454.8,29.7c-8.5,0-15.3,4.5-17,11.4l-2.1,8.6c-1.1,5.5-0.8,10.7,9.4,10.7h19.4c2.3,0,2.8,0.6,2.4,2.4l-0.2,0.9
	c-0.5,1.8-1.3,2.4-3.6,2.4h-18.9c-7.9,0-9.7-0.7-13.3-2.6l-1,10.7h41.5c10,0,14.9-6.1,16.3-11.8l2.2-8.9c1.1-5.4,0.8-10.6-9.5-10.6
	h-19.3c-2.2,0-2.8-0.6-2.6-1.6l0.5-1.9c0.2-1,1.2-1.6,3.4-1.6H480c5.2,0,11.3,0.8,12.5,2.9l0.9-11.1H454.8z"/>
</svg>
