<?xml version="1.0" encoding="utf-8"?>
<!-- Generator: Adobe Illustrator 22.1.0, SVG Export Plug-In . SVG Version: 6.00 Build 0)  -->
<svg version="1.1" id="Layer_1" xmlns="http://www.w3.org/2000/svg" xmlns:xlink="http://www.w3.org/1999/xlink" x="0px" y="0px"
	 viewBox="0 0 544.8 226" style="enable-background:new 0 0 544.8 226;" xml:space="preserve">
<style type="text/css">
	.st0{fill:#FFFFFF;}
	.st1{fill:none;stroke:#A9A7A7;stroke-miterlimit:10;}
	.st2{fill:#A9A7A7;}
</style>
<g>
	<path class="st0" d="M170.2,118.8c0,8.4,0,15,0.4,18.7c0.3,2.5,0.8,4.5,3.4,4.8c1.2,0.2,3.2,0.4,4.4,0.4c1.1,0,1.5,0.3,1.5,0.7
		c0,0.6-0.6,0.9-1.9,0.9c-5.5,0-11.1-0.3-13.4-0.3s-7.8,0.3-11.2,0.3c-1.2,0-1.8-0.2-1.8-0.9c0-0.4,0.4-0.7,1.3-0.7
		c1.3,0,2.4-0.2,3.2-0.4c1.8-0.4,2.2-2.3,2.5-4.8c0.4-3.7,0.4-10.3,0.4-18.7v-15.5c0-13.4,0-15.8-0.2-18.6c-0.2-3-0.9-4.4-3.8-5
		c-0.7-0.2-2.2-0.3-3.4-0.3c-0.9,0-1.5-0.2-1.5-0.7c0-0.7,0.7-0.9,2-0.9c2.3,0,4.8,0.1,7.1,0.1c2.3,0.1,4.3,0.2,5.5,0.2
		c3.3,0,21.2,0,23.2-0.1c1.7-0.1,2.7-0.1,3.6-0.4c0.5-0.2,1-0.5,1.4-0.5c0.4,0,0.6,0.4,0.6,0.8c0,0.6-0.4,1.7-0.7,4
		c-0.1,0.9-0.3,6.1-0.4,7.1c-0.1,0.7-0.3,1.2-0.9,1.2c-0.6,0-0.8-0.4-0.9-1.4c0-0.7,0-2.1-0.5-3.3c-0.6-1.2-2.5-2.5-5.8-2.6
		L171,82.6c-0.5,0-0.8,0.3-0.8,1.2v22c0,0.5,0.1,0.8,0.6,0.8l11.2-0.1c1.5,0,2.7,0,4-0.1c1.7-0.1,2.9-0.4,3.8-1.6
		c0.4-0.5,0.6-0.9,1.1-0.9c0.4,0,0.5,0.3,0.5,0.8s-0.4,2.7-0.7,5.4c-0.2,1.8-0.4,5.8-0.4,6.4c0,0.8,0,1.7-0.9,1.7
		c-0.5,0-0.7-0.6-0.7-1.2s-0.2-1.7-0.5-2.7c-0.4-1.2-1.8-2.8-4.5-3.2c-2.2-0.3-11.5-0.3-13-0.3c-0.4,0-0.6,0.2-0.6,0.8V118.8z"/>
	<path class="st0" d="M203.6,116c0-12.7,9-29.3,32.4-29.3c19.5,0,31.6,10.8,31.6,27.9s-12.5,30.6-32.4,30.6
		C212.8,145.2,203.6,129.2,203.6,116z M256.2,117.4c0-16.5-9.9-26.7-22.4-26.7c-8.6,0-18.7,4.6-18.7,23c0,15.4,8.8,27.5,23.4,27.5
		C243.9,141.2,256.2,138.6,256.2,117.4z"/>
	<path class="st0" d="M282.1,109.4c0-11.3,0-13.4-0.1-15.8c-0.2-2.5-0.9-3.3-3.3-4c-0.6-0.2-1.9-0.3-3.1-0.3c-0.8,0-1.3-0.3-1.3-0.8
		s0.6-0.7,1.8-0.7c4,0,9,0.2,10.5,0.2c2.6,0,9.7-0.2,12-0.2c4.9,0,10.5,0.4,14.7,3.2c2.2,1.5,5.4,5.3,5.4,10.3
		c0,5.5-3.2,10.5-10.7,16.5c6.9,8.4,12.3,15.2,17,19.9c4.3,4.3,7,4.7,8.3,4.9c0.8,0.2,1.2,0.2,1.8,0.2c0.6,0,1,0.4,1,0.8
		c0,0.6-0.5,0.8-1.5,0.8h-7.4c-4.3,0-6.4-0.4-8.4-1.5c-3.3-1.7-6.2-5.2-10.5-11c-3.1-4-6.3-9.1-7.3-10.2c-0.4-0.4-0.9-0.5-1.4-0.5
		l-6.9-0.2c-0.4,0-0.6,0.2-0.6,0.6v1.1c0,6.9,0.1,12.7,0.4,15.9c0.3,2.2,0.6,3.6,3,4c1.1,0.2,2.8,0.3,3.8,0.3c0.6,0,1,0.4,1,0.8
		c0,0.5-0.6,0.8-1.6,0.8c-4.5,0-10.9-0.3-12-0.3c-1.5,0-6.4,0.3-9.5,0.3c-1,0-1.5-0.3-1.5-0.8c0-0.4,0.3-0.8,1.2-0.8
		c1.1,0,2-0.1,2.7-0.3c1.6-0.4,2-1.8,2.3-4c0.4-3.2,0.4-9.1,0.4-15.9V109.4z M291.9,115.2c0,0.8,0.2,1.1,0.7,1.3
		c1.7,0.5,4,0.7,5.9,0.7c3.1,0,4.1-0.3,5.4-1.2c2.4-1.7,5-4.9,5-11.1c0-10.5-7.2-13.3-11.8-13.3c-1.9,0-3.8,0.1-4.6,0.3
		c-0.5,0.2-0.7,0.4-0.7,1.1V115.2z"/>
	<path class="st0" d="M349.3,92.3l-11.5,0.3c-4.5,0.1-6.3,0.6-7.5,2.3c-0.8,1.1-1.1,2-1.3,2.5c-0.2,0.6-0.4,1-0.9,1
		c-0.5,0-0.7-0.4-0.7-1.2c0-1.2,1.5-8.4,1.7-9.1c0.2-1,0.4-1.4,0.9-1.4c0.6,0,1.4,0.6,3.3,0.9c2.3,0.3,5.2,0.4,7.7,0.4h31.4
		c2.5,0,4.1-0.2,5.3-0.4c1.2-0.2,1.8-0.4,2.1-0.4c0.5,0,0.6,0.4,0.6,1.6c0,1.6-0.2,7.1-0.2,9.1c-0.1,0.8-0.3,1.2-0.7,1.2
		c-0.6,0-0.8-0.4-0.9-1.5l-0.1-0.8c-0.2-1.9-2.2-4.2-9.1-4.3l-9.8-0.2v30.2c0,6.9,0.1,12.7,0.4,16c0.3,2.1,0.7,3.5,3,3.9
		c1.1,0.2,2.8,0.3,4,0.3c0.9,0,1.2,0.4,1.2,0.8c0,0.5-0.6,0.8-1.5,0.8c-5.1,0-10.3-0.3-12.5-0.3c-1.8,0-7,0.3-10.1,0.3
		c-1,0-1.5-0.3-1.5-0.8c0-0.4,0.3-0.8,1.2-0.8c1.1,0,2.1-0.1,2.7-0.3c1.6-0.4,2-1.8,2.3-4c0.4-3.2,0.4-9.1,0.4-15.9V92.3z"/>
</g>
<g>
	<path class="st0" d="M158.9,177.3c0-13.4,0-15.8-0.2-18.6c-0.2-3-0.9-4.4-4-5c-0.7-0.2-2.3-0.3-3.6-0.3c-1,0-1.6-0.2-1.6-0.8
		s0.6-0.8,2-0.8c4.9,0,10.7,0.3,13.3,0.3c2.9,0,8.7-0.3,14.2-0.3c11.5,0,26.9,0,37,10c4.6,4.6,8.9,11.9,8.9,22.3
		c0,11.1-4.9,19.5-10.1,24.5c-4.2,4.1-13.8,10.4-30.9,10.4c-3.3,0-7.1-0.3-10.6-0.5s-6.7-0.5-9-0.5c-1,0-3,0-5.3,0.1
		c-2.1,0-4.5,0.2-6.4,0.2c-1.2,0-1.8-0.3-1.8-0.9c0-0.4,0.4-0.7,1.5-0.7c1.4,0,2.5-0.2,3.3-0.4c1.8-0.4,2.3-2.3,2.7-4.8
		c0.5-3.7,0.5-10.6,0.5-18.7V177.3z M170.4,187c0,9.3,0.1,16.1,0.2,17.8c0.1,2.2,0.3,5.7,1,6.7c1.2,1.7,4.8,3.5,12.1,3.5
		c9.4,0,15.7-1.8,21.2-6.3c5.9-4.8,7.8-12.8,7.8-21.9c0-11.2-4.9-18.4-8.9-22c-8.5-7.7-19-8.8-26.2-8.8c-1.8,0-5.3,0.3-6,0.6
		c-0.8,0.4-1.1,0.8-1.1,1.8c-0.1,3-0.1,10.6-0.1,17.6V187z"/>
	<path class="st0" d="M239.9,183.4c0-11.3,0.1-13.4-0.1-15.8c-0.2-2.6-0.9-3.3-3.5-4c-0.6-0.2-2-0.3-3.1-0.3c-0.9,0-1.4-0.3-1.4-0.8
		s0.6-0.7,1.8-0.7c4.3,0,9.8,0.2,12.2,0.2c2,0,7.5-0.2,10.4-0.2c1.2,0,1.8,0.2,1.8,0.7s-0.5,0.8-1.3,0.8c-0.9,0-1.4,0.1-2.4,0.3
		c-2.1,0.4-2.8,1.4-3,4c-0.2,2.4-0.2,4.5-0.2,15.8v10.5c0,10.9,2.2,15.1,6.2,18.1c3.6,2.7,7.5,3,10.2,3c3.5,0,7.7-1,10.9-4
		c4.5-4,4.7-10.5,4.7-18.2v-9.4c0-11.3-0.1-13.4-0.2-15.8c-0.2-2.5-0.8-3.3-3.4-4c-0.6-0.2-2-0.3-3-0.3c-0.9,0-1.4-0.3-1.4-0.8
		s0.6-0.7,1.7-0.7c4.2,0,9.6,0.2,9.7,0.2c0.9,0,6.4-0.2,9.5-0.2c1.1,0,1.7,0.2,1.7,0.7s-0.5,0.8-1.4,0.8c-0.9,0-1.4,0.1-2.4,0.3
		c-2.2,0.4-2.8,1.4-3,4c-0.1,2.4-0.2,4.5-0.2,15.8v8c0,8.3-0.9,17.1-7.8,22.5c-5.7,4.6-11.9,5.4-17.2,5.4c-4.2,0-12.6-0.2-18.5-5.1
		c-4.2-3.4-7.4-9-7.4-19.8V183.4z"/>
	<path class="st0" d="M316.8,208.1c0.2,5.8,1.2,7.6,2.8,8.1c1.4,0.4,3,0.5,4.2,0.5c0.9,0,1.4,0.4,1.4,0.8c0,0.6-0.7,0.8-1.8,0.8
		c-5.3,0-9-0.3-10.5-0.3c-0.7,0-4.6,0.3-8.8,0.3c-1.1,0-1.8-0.1-1.8-0.8c0-0.4,0.6-0.8,1.3-0.8c1.1,0,2.6-0.1,3.7-0.4
		c2.1-0.5,2.4-2.5,2.5-9.1l0.7-44.3c0-1.5,0.6-2.5,1.4-2.5c1,0,2.1,1.1,3.5,2.5c1,1,13.2,12.8,25,23.8c5.5,5.2,16.3,15.7,17.5,16.8
		h0.4l-0.8-33.2c-0.1-4.6-0.8-5.9-2.8-6.6c-1.2-0.4-3.1-0.4-4.2-0.4c-1,0-1.3-0.4-1.3-0.8c0-0.6,0.8-0.7,2-0.7
		c4.2,0,8.6,0.2,10.3,0.2c0.9,0,4-0.2,7.9-0.2c1.1,0,1.8,0.1,1.8,0.7c0,0.4-0.5,0.8-1.4,0.8c-0.8,0-1.5,0-2.5,0.3
		c-2.2,0.6-2.9,1.9-3,6.2l-0.9,47.1c0,1.7-0.6,2.4-1.3,2.4c-1.4,0-2.5-0.8-3.3-1.6c-5.1-4.5-15.2-13.7-23.7-21.5
		c-8.9-8.1-17.4-17.1-19-18.5h-0.3L316.8,208.1z"/>
	<path class="st0" d="M389.3,183.4c0-11.3,0-13.4-0.1-15.8c-0.2-2.5-0.9-3.3-3.5-4c-0.6-0.2-2-0.3-3.2-0.3c-0.8,0-1.4-0.3-1.4-0.8
		s0.6-0.7,1.8-0.7c4.2,0,9.4,0.2,11.1,0.2c2.8,0,10.1-0.2,12.6-0.2c5.2,0,11.1,0.4,15.4,3.2c2.3,1.5,5.7,5.3,5.7,10.3
		c0,5.5-3.3,10.5-11.3,16.5c7.2,8.4,12.9,15.2,17.8,19.9c4.5,4.3,7.4,4.7,8.7,4.9c0.8,0.2,1.3,0.2,1.9,0.2c0.6,0,1,0.4,1,0.8
		c0,0.6-0.6,0.8-1.6,0.8h-7.8c-4.5,0-6.7-0.4-8.9-1.5c-3.5-1.7-6.6-5.2-11.1-11c-3.2-4-6.6-9.1-7.7-10.2c-0.5-0.4-0.9-0.5-1.5-0.5
		l-7.3-0.2c-0.4,0-0.6,0.2-0.6,0.6v1.1c0,6.9,0.1,12.7,0.5,15.9c0.3,2.2,0.6,3.6,3.1,4c1.2,0.2,3,0.3,4,0.3c0.6,0,1,0.4,1,0.8
		c0,0.5-0.6,0.8-1.7,0.8c-4.7,0-11.4-0.3-12.6-0.3c-1.6,0-6.7,0.3-10,0.3c-1,0-1.6-0.3-1.6-0.8c0-0.4,0.3-0.8,1.3-0.8
		c1.2,0,2.1-0.1,2.9-0.3c1.7-0.4,2.1-1.8,2.4-4c0.4-3.2,0.4-9.1,0.4-15.9V183.4z M399.6,189.2c0,0.8,0.2,1.1,0.7,1.3
		c1.8,0.5,4.2,0.7,6.2,0.7c3.2,0,4.3-0.3,5.7-1.2c2.5-1.7,5.3-4.9,5.3-11.1c0-10.5-7.6-13.3-12.4-13.3c-2,0-4,0.1-4.8,0.3
		c-0.6,0.2-0.7,0.4-0.7,1.1V189.2z"/>
	<path class="st0" d="M452.6,183.4c0-11.3,0-13.4-0.1-15.8c-0.2-2.5-0.9-3.3-3.5-4c-0.6-0.2-2-0.3-3.2-0.3c-0.8,0-1.4-0.3-1.4-0.8
		s0.6-0.7,1.8-0.7c4.2,0,9.4,0.2,11.7,0.2c2.6,0,20.6,0.1,22.1,0c1.5-0.1,2.8-0.4,3.4-0.4c0.5-0.1,0.9-0.4,1.3-0.4
		c0.5,0,0.6,0.4,0.6,0.7c0,0.5-0.5,1.4-0.6,4.8c-0.1,0.8-0.3,4-0.5,4.9c-0.1,0.4-0.3,1.2-0.9,1.2c-0.6,0-0.6-0.4-0.6-1
		c0-0.5-0.1-1.8-0.6-2.7c-0.6-1.3-1.3-2.4-5.4-2.7c-1.4-0.2-11.1-0.4-12.7-0.4c-0.4,0-0.6,0.3-0.6,0.7v18.5c0,0.4,0.1,0.8,0.6,0.8
		c1.8,0,12.4,0,14.2-0.2c1.9-0.2,3.1-0.4,3.9-1.1c0.6-0.5,0.9-1,1.3-1s0.6,0.4,0.6,0.8s-0.2,1.7-0.6,5.4c-0.2,1.5-0.4,4.5-0.4,5
		c0,0.6-0.1,1.7-0.8,1.7c-0.6,0-0.7-0.3-0.7-0.6c-0.1-0.8-0.1-1.8-0.3-2.7c-0.5-1.5-1.5-2.6-4.5-2.9c-1.5-0.2-10.7-0.4-12.7-0.4
		c-0.4,0-0.5,0.4-0.5,0.8v6c0,2.5-0.1,8.9,0,11.1c0.2,5.1,2.7,6.2,11,6.2c2.1,0,5.5-0.1,7.7-1c2-0.9,3-2.5,3.5-5.5
		c0.2-0.8,0.4-1.1,0.9-1.1c0.6,0,0.7,1,0.7,1.8c0,1.7-0.6,6.8-1.1,8.3c-0.6,1.9-1.3,1.9-4.3,1.9c-6.1,0-11-0.1-14.9-0.3
		c-4-0.1-7-0.2-9.4-0.2c-0.9,0-2.7,0.1-4.6,0.1c-1.9,0.1-4,0.2-5.6,0.2c-1,0-1.6-0.3-1.6-0.8c0-0.4,0.3-0.8,1.3-0.8
		c1.2,0,2.1-0.1,2.9-0.3c1.7-0.4,2.1-1.8,2.4-4c0.4-3.2,0.4-9.1,0.4-15.9V183.4z"/>
	<path class="st0" d="M503.9,183.4c0-11.3,0-13.4-0.1-15.8c-0.2-2.5-0.9-3.3-3.5-4c-0.6-0.2-2-0.3-3.2-0.3c-0.8,0-1.4-0.3-1.4-0.8
		s0.6-0.7,1.8-0.7c4.2,0,9.4,0.2,11.7,0.2c2.6,0,20.6,0.1,22.1,0c1.5-0.1,2.8-0.4,3.4-0.4c0.5-0.1,0.9-0.4,1.3-0.4
		c0.5,0,0.6,0.4,0.6,0.7c0,0.5-0.5,1.4-0.6,4.8c-0.1,0.8-0.3,4-0.5,4.9c-0.1,0.4-0.3,1.2-0.9,1.2c-0.6,0-0.6-0.4-0.6-1
		c0-0.5-0.1-1.8-0.6-2.7c-0.6-1.3-1.3-2.4-5.4-2.7c-1.4-0.2-11.1-0.4-12.7-0.4c-0.4,0-0.6,0.3-0.6,0.7v18.5c0,0.4,0.1,0.8,0.6,0.8
		c1.8,0,12.4,0,14.2-0.2c1.9-0.2,3.1-0.4,3.9-1.1c0.6-0.5,0.9-1,1.3-1s0.6,0.4,0.6,0.8s-0.2,1.7-0.6,5.4c-0.2,1.5-0.4,4.5-0.4,5
		c0,0.6-0.1,1.7-0.8,1.7c-0.6,0-0.7-0.3-0.7-0.6c-0.1-0.8-0.1-1.8-0.3-2.7c-0.5-1.5-1.5-2.6-4.5-2.9c-1.5-0.2-10.7-0.4-12.7-0.4
		c-0.4,0-0.5,0.4-0.5,0.8v6c0,2.5-0.1,8.9,0,11.1c0.2,5.1,2.7,6.2,11,6.2c2.1,0,5.5-0.1,7.7-1c2-0.9,3-2.5,3.5-5.5
		c0.2-0.8,0.4-1.1,0.9-1.1c0.6,0,0.7,1,0.7,1.8c0,1.7-0.6,6.8-1.1,8.3c-0.6,1.9-1.3,1.9-4.3,1.9c-6.1,0-11-0.1-14.9-0.3
		c-4-0.1-7-0.2-9.4-0.2c-0.9,0-2.7,0.1-4.6,0.1c-1.9,0.1-4,0.2-5.6,0.2c-1,0-1.6-0.3-1.6-0.8c0-0.4,0.3-0.8,1.3-0.8
		c1.2,0,2.1-0.1,2.9-0.3c1.7-0.4,2.1-1.8,2.4-4c0.4-3.2,0.4-9.1,0.4-15.9V183.4z"/>
</g>
<polygon class="st1" points="390.8,144 535.8,144 535.8,85 515.8,85 515.8,106 495.8,106 495.8,85 474.8,85 474.8,106 453.8,106 
	453.8,85 433.8,85 433.8,106 411.8,106 411.8,85 390.8,85 "/>
<path class="st2" d="M2,102.5c0,0,19.3,0.5,29.3-1c0,0,5.5-0.3,13.5,4.8l18.5,10.5c0,0,5.8,4.5,9,2.5c0,0,7.8-8.6,16.8-8.2
	c0,0,4.3-1.3,3,2.4c0,0,0,2.5-3.8,5.3c0,0-3.8,5,4,4.7c0,0,12-1.2,16.3,1c0,0,8.5,2.2,14.3,7l21,14.5c0,0,3.5,4.3-3,4.5
	c0,0-11.3,1.5-25.5-6.5c0,0-30.3-1-39,0c0,0-2.8,2.5,0.5,7.8c0,0,5,10-5.5,9.8c0,0-13,1-18.8-8.8c0,0-4-5.5,1.8-8.8c0,0,6-3.3,8.5-6
	c0,0-24.3-17-36-21c0,0-13.8,2.8-24.8-9C2,108-2.5,103.5,2,102.5z"/>
<path class="st2" d="M83.3,72.8h9.5c0,0,4,0,8,3.3c0,0,2.5,2-1.8,2.3c0,0-6.8-0.8-8,1.8c0,0-1,0.5,3.3,3.8L106.8,94
	c0,0,2.3,1.3,3,3.8l8.5,23c0,0,1.8,5,0,4.8s-9.5,3.2-17.1-17c0,0-20.1-12.3-25.6-18.3l-7.3,11.2c0,0-14.8,4-14.3-20.5l14.8,0.3
	c0,0-13.3-20-14.8-32c0,0-11.2-4.3-14.2-18.2c0,0-0.5-5.8,3.3-3.3l21.5,12.7c0,0,2.5,0.8,5,5.3L83.3,72.8z"/>
<path class="st2" d="M115.3,26l3.8-9.3c0,0,1.2-4,4.7-1.5c0,0,1,3.7,0,5c0,0,0.5,2,4.5,0l6.5-3.7c0,0,4.8-2.3,9-2.1L158,16
	c0,0,5.6,1,2.5,4.2c0,0-11.1,8.1-19.6,5.8l0,0l-14.2,9.7c0,0-2,2.5,0.3,3.5l2.3,2.3c0,0,3.3,6.3-1.8,6.8c0,0-4.8-1.8-12.3,0
	c0,0-4.5-0.3-2.5-5.5l3.5-4.5c0,0,0.8-1.5-2.5-1.3c0,0-16.5,2.3-20.5,0.8c0,0-4.3,6.8-16.5,4.8c0,0-5.8-0.3-4.4-3.3
	c0,0,11.9-5.3,17.4-10.2c0,0,0.9-2.6,7.2-3H115.3z"/>
</svg>
