<svg fill="none" height="512" viewBox="0 0 20 20" width="512" xmlns="http://www.w3.org/2000/svg" xmlns:xlink="http://www.w3.org/1999/xlink"><linearGradient id="paint0_linear_3139_217" gradientUnits="userSpaceOnUse" x1="10" x2="10" y1="0" y2="20"><stop offset="0" stop-color="#ee9ae5"/><stop offset="1" stop-color="#5961f9"/></linearGradient><g fill="url(#paint0_linear_3139_217)"><path clip-rule="evenodd" d="m17 0c.27 0 .52.11.71.29.18.19.29.44.29.71v10c0 .27-.11.52-.29.71-.19.18-.44.29-.71.29h-14c-.27 0-.52-.11-.71-.29-.18-.19-.29-.44-.29-.71v-10c0-.27.11-.52.29-.71.19-.18.44-.29.71-.29zm-3.41 5.16797 2.41 1.83203v-5h-12v5l1.48-.89203c.32-.16.7-.14 1 .06l2.52 1.83203 3.44-2.80203c.33-.25.8-.27 1.15-.03z" fill-rule="evenodd"/><path d="m2.29 14.29c.19-.18.44-.29.71-.29s.52.11.71.29c.18.19.29.44.29.71v4c0 .27-.11.52-.29.71-.19.18-.44.29-.71.29s-.52-.11-.71-.29c-.18-.19-.29-.44-.29-.71v-4c0-.27.11-.52.29-.71z"/><path d="m9 16c.27 0 .52-.11.71-.29.18-.19.29-.44.29-.71s-.11-.52-.29-.71c-.19-.18-.44-.29-.71-.29-1.65 0-3 1.35-3 3s1.35 3 3 3c.27 0 .52-.11.71-.29.18-.19.29-.44.29-.71s-.11-.52-.29-.71c-.19-.18-.44-.29-.71-.29-.26-.01-.5-.12-.68-.31-.18-.18-.28-.43-.28-.69s.1-.51.28-.69c.18-.19.42-.3.68-.31z"/><path clip-rule="evenodd" d="m15 14c-1.65 0-3 1.35-3 3s1.35 3 3 3 3-1.35 3-3-1.35-3-3-3zm.68 3.69c-.18.19-.42.3-.68.31-.26-.01-.5-.12-.68-.31-.18-.18-.28-.43-.28-.69s.1-.51.28-.69c.18-.19.42-.3.68-.31.26.01.5.12.68.31.18.18.28.43.28.69s-.1.51-.28.69z" fill-rule="evenodd"/></g></svg>