<svg xmlns="http://www.w3.org/2000/svg" height="511pt" version="1.1" viewBox="1 -44 511.99999 511" width="511pt">
<g id="surface1">
<path d="M 0 221.191406 L 132.414062 88.777344 L 313.378906 269.742188 L 397.242188 185.878906 L 512 300.636719 L 512 0.5 L 0 0.5 Z M 317.792969 88.777344 C 332.417969 88.777344 344.273438 100.632812 344.273438 115.257812 C 344.273438 129.882812 332.417969 141.742188 317.792969 141.742188 C 303.167969 141.742188 291.308594 129.882812 291.308594 115.257812 C 291.308594 100.632812 303.167969 88.777344 317.792969 88.777344 Z M 317.792969 88.777344 " style=" stroke:none;fill-rule:nonzero;fill:rgb(83.921569%,85.098039%,97.254902%);fill-opacity:1;" />
<path d="M 313.378906 269.742188 L 467.863281 424.222656 L 512 424.222656 L 512 300.636719 L 397.242188 185.878906 Z M 313.378906 269.742188 " style=" stroke:none;fill-rule:nonzero;fill:rgb(60%,62.352941%,92.941176%);fill-opacity:1;" />
<path d="M 344.273438 115.257812 C 344.273438 129.882812 332.417969 141.742188 317.792969 141.742188 C 303.167969 141.742188 291.308594 129.882812 291.308594 115.257812 C 291.308594 100.632812 303.167969 88.777344 317.792969 88.777344 C 332.417969 88.777344 344.273438 100.632812 344.273438 115.257812 Z M 344.273438 115.257812 " style=" stroke:none;fill-rule:nonzero;fill:rgb(31.764706%,35.686275%,87.843137%);fill-opacity:1;" />
<path d="M 132.414062 88.777344 L 0 221.191406 L 0 424.222656 L 467.863281 424.222656 L 313.378906 269.742188 Z M 132.414062 88.777344 " style=" stroke:none;fill-rule:nonzero;fill:rgb(43.137255%,46.27451%,89.803922%);fill-opacity:1;" />
<path d="M 317.792969 150.570312 C 298.292969 150.570312 282.484375 134.761719 282.484375 115.257812 C 282.484375 95.757812 298.292969 79.949219 317.792969 79.949219 C 337.292969 79.949219 353.101562 95.757812 353.101562 115.257812 C 353.101562 134.761719 337.292969 150.570312 317.792969 150.570312 Z M 317.792969 97.601562 C 308.042969 97.601562 300.136719 105.507812 300.136719 115.257812 C 300.136719 125.007812 308.042969 132.914062 317.792969 132.914062 C 327.542969 132.914062 335.449219 125.007812 335.449219 115.257812 C 335.449219 105.507812 327.542969 97.601562 317.792969 97.601562 Z M 317.792969 97.601562 " style=" stroke:none;fill-rule:nonzero;fill:rgb(31.764706%,35.686275%,87.843137%);fill-opacity:1;" />
</g>
</svg>